<svg width="159" height="197" viewBox="0 0 159 197" fill="none" xmlns="http://www.w3.org/2000/svg">
<path fill-rule="evenodd" clip-rule="evenodd" d="M47.0237 0.704159L68.8769 13.164C69.5187 13.4966 70.0865 13.9555 70.5465 14.5131C71.0064 15.0707 71.3489 15.7154 71.5534 16.4087C71.7578 17.1019 71.8201 17.8294 71.7364 18.5473C71.6526 19.2653 71.4247 19.9589 71.0662 20.5865L65.0644 31.1129L126.696 72.1073C128.145 70.9427 129.759 69.983 131.495 69.264C135.092 67.7741 139.05 67.3842 142.868 68.1438C146.687 68.9033 150.194 70.7782 152.947 73.5311C155.7 76.2841 157.575 79.7915 158.334 83.61C159.094 87.4285 158.704 91.3865 157.214 94.9834C155.724 98.5803 153.201 101.655 149.964 103.818C146.727 105.981 142.921 107.135 139.028 107.135C138.679 107.135 138.331 107.125 137.985 107.106L106.196 186.223H127.576V196.95H73.0543V186.223H94.6355L127.824 103.623C126.862 102.956 125.955 102.201 125.116 101.362C121.426 97.6717 119.35 92.6689 119.343 87.4503C119.343 85.1917 119.732 82.9625 120.48 80.8567L59.7385 40.4541L54.9499 48.8527C58.4717 56.7506 58.9789 66.2141 56.0507 75.2745L4.57764e-05 43.3068C6.41446 36.0673 14.9799 31.6657 23.7079 30.7685L39.7075 2.70703C40.4121 1.47124 41.5787 0.565978 42.9508 0.190368C44.3229 -0.185243 45.7879 -0.000436017 47.0237 0.704159ZM144.004 80.0026C142.531 79.0183 140.799 78.493 139.028 78.493C136.654 78.5001 134.38 79.446 132.702 81.1243C131.024 82.8026 130.078 85.0769 130.07 87.4503C130.07 89.2219 130.596 90.9537 131.58 92.4268C132.564 93.8998 133.963 95.0479 135.6 95.7259C137.237 96.4038 139.038 96.5812 140.775 96.2356C142.513 95.89 144.109 95.0368 145.362 93.7841C146.614 92.5314 147.468 90.9354 147.813 89.1979C148.159 87.4603 147.981 85.6592 147.303 84.0225C146.625 82.3857 145.477 80.9868 144.004 80.0026Z" fill="#E8E8E8"/>
</svg>
