<svg width="219" height="35" viewBox="0 0 219 35" fill="none" xmlns="http://www.w3.org/2000/svg">
<g clip-path="url(#clip0_143_49)">
<path fill-rule="evenodd" clip-rule="evenodd" d="M19.828 0.171722L15.9497 2.38301C15.8358 2.44204 15.735 2.52348 15.6534 2.62244C15.5717 2.72139 15.5109 2.83582 15.4747 2.95886C15.4384 3.08189 15.4273 3.211 15.4422 3.33841C15.457 3.46583 15.4975 3.58892 15.5611 3.70031L16.6262 5.56834L5.68825 12.8438C5.43112 12.6371 5.14463 12.4668 4.83654 12.3391C4.19818 12.0747 3.49576 12.0055 2.81808 12.1403C2.1404 12.2751 1.51791 12.6079 1.02934 13.0964C0.540759 13.585 0.208031 14.2075 0.0732324 14.8852C-0.061566 15.5629 0.00761659 16.2653 0.272033 16.9037C0.53645 17.542 0.984224 18.0876 1.55873 18.4715C2.13324 18.8554 2.80868 19.0603 3.49963 19.0603C3.56143 19.0602 3.62306 19.0585 3.68446 19.0551L9.32608 33.0962H5.5319V35H15.2081V33.0962H11.3778L5.48788 18.4371C5.65862 18.3187 5.8196 18.1846 5.96853 18.0357C6.62342 17.3808 6.99189 16.4929 6.99315 15.5667C6.99315 15.1659 6.9242 14.7703 6.79134 14.3965L17.5714 7.22615L18.4211 8.71649C17.796 10.1182 17.706 11.7978 18.2257 13.4058L28.1732 7.73244C27.0349 6.44767 25.5148 5.66653 23.9659 5.50725L21.1265 0.527178C21.0014 0.307858 20.7944 0.147199 20.5509 0.0805381C20.3074 0.0138773 20.0473 0.0466756 19.828 0.171722ZM2.61644 14.245C2.87787 14.0703 3.18522 13.977 3.49963 13.977C3.92086 13.9783 4.32447 14.1462 4.62233 14.444C4.92018 14.7419 5.08807 15.1455 5.08933 15.5667C5.08933 15.8812 4.99609 16.1885 4.82141 16.4499C4.64674 16.7113 4.39846 16.9151 4.10798 17.0354C3.8175 17.1557 3.49787 17.1872 3.1895 17.1259C2.88112 17.0646 2.59787 16.9131 2.37554 16.6908C2.15322 16.4685 2.00182 16.1852 1.94048 15.8769C1.87914 15.5685 1.91062 15.2489 2.03094 14.9584C2.15126 14.6679 2.35502 14.4196 2.61644 14.245Z" fill="white"/>
<path fill-rule="evenodd" clip-rule="evenodd" d="M195.809 19.2285C195.83 20.8313 195.533 22.4224 194.935 23.9098C194.425 25.2229 193.653 26.4185 192.666 27.4238C191.727 28.3828 190.606 29.144 189.368 29.6627C186.982 30.5763 184.343 30.5763 181.957 29.6627C180.797 29.2151 179.738 28.5393 178.844 27.6753C177.784 26.6607 176.947 25.4378 176.383 24.0834C175.741 22.532 175.423 20.8655 175.45 19.1866C175.43 17.6852 175.681 16.1925 176.192 14.7806C176.681 13.4466 177.435 12.225 178.407 11.1887C179.316 10.2051 180.424 9.42569 181.657 8.90193C184.181 7.84089 187.023 7.82365 189.56 8.85403C190.732 9.34289 191.794 10.0614 192.684 10.9672C193.713 12.0254 194.509 13.2878 195.019 14.6728C195.554 16.1315 195.822 17.6748 195.809 19.2285ZM193.139 19.4799C193.139 18.1116 192.906 16.7533 192.451 15.463C192.034 14.2092 191.319 13.0752 190.368 12.1585C189.755 11.5586 189.037 11.0775 188.248 10.7397C187.42 10.3956 186.53 10.2245 185.632 10.2369C184.727 10.23 183.829 10.4051 182.992 10.7517C182.166 11.1023 181.416 11.6106 180.783 12.2483C179.918 13.1354 179.25 14.1965 178.826 15.3612C177.884 17.9192 177.884 20.7293 178.826 23.2872C179.272 24.4339 179.962 25.4696 180.849 26.3223C181.466 26.9118 182.187 27.3826 182.974 27.7112C183.805 28.0651 184.7 28.2444 185.603 28.238C186.502 28.2458 187.393 28.0727 188.225 27.7291C189.047 27.3821 189.797 26.8825 190.434 26.2565C191.268 25.4363 191.926 24.4544 192.367 23.371C192.889 22.1491 193.152 20.8324 193.139 19.5038V19.4799ZM117.933 28.2328L117.933 28.2334C117.921 28.3399 117.906 28.4651 117.89 28.6091C117.843 29.0461 117.795 29.519 117.753 30.0339H117.208C114.897 30.0763 112.594 29.7551 110.383 29.082C108.555 28.5311 106.876 27.571 105.475 26.2744C104.574 25.4099 103.855 24.3738 103.361 23.2273C102.825 21.9425 102.56 20.5607 102.583 19.1686C102.567 17.8841 102.831 16.6116 103.355 15.439C103.846 14.344 104.527 13.3448 105.367 12.4878C106.747 11.1672 108.409 10.1784 110.228 9.59633C112.324 8.87181 114.529 8.50944 116.747 8.52476H117.447C117.447 8.65951 117.462 8.84757 117.481 9.09103L117.482 9.09199L117.482 9.0925L117.482 9.09296L117.482 9.09452C117.49 9.19624 117.499 9.30759 117.507 9.42872C117.537 9.84178 117.573 10.2908 117.615 10.7757H117.082C115.712 10.7818 114.346 10.9262 113.006 11.2067C111.734 11.4475 110.508 11.8858 109.372 12.5057C108.12 13.1922 107.066 14.1902 106.313 15.4031C105.611 16.5509 105.242 17.8711 105.247 19.2165C105.229 20.5645 105.559 21.8943 106.205 23.0777C106.926 24.3147 107.98 25.3248 109.246 25.9931C110.43 26.6629 111.713 27.1398 113.047 27.4059C114.425 27.6984 115.829 27.8468 117.238 27.8488H117.537L117.974 27.8129C117.974 27.8771 117.958 28.0165 117.933 28.2328ZM53.6624 23.5566C53.6757 24.5573 53.3947 25.5399 52.8542 26.3822C52.2679 27.2641 51.4581 27.9747 50.5075 28.4415C49.5632 28.9238 48.5555 29.2705 47.5143 29.4712C46.2826 29.6997 45.0315 29.808 43.7788 29.7945C42.7452 29.7945 41.6796 29.7765 40.5821 29.7406C39.4866 29.7047 38.882 29.6807 38.7562 29.6688C38.7882 27.6733 38.8081 25.7736 38.8161 23.9697C38.8241 22.1658 38.8241 20.4597 38.8161 18.8513C38.8161 15.7743 38.8021 13.3359 38.7742 11.536C38.7742 10.0394 38.7493 9.13724 38.7409 8.83654L38.7409 8.83654C38.7393 8.7764 38.7383 8.74031 38.7383 8.72834L40.4683 8.65051C41.48 8.60861 42.4618 8.59064 43.4137 8.59064C44.4153 8.58283 45.4161 8.65288 46.4069 8.80017C47.1948 8.91425 47.9677 9.11501 48.7116 9.39881C49.5945 9.72657 50.3708 10.2897 50.9565 11.0271C51.5167 11.7773 51.8059 12.6954 51.7766 13.6312C51.7885 14.6796 51.4231 15.6973 50.747 16.4987C50.1431 17.274 49.3344 17.865 48.4123 18.2048V18.3604C49.1347 18.425 49.8431 18.5986 50.5135 18.8753C51.1873 19.1481 51.7984 19.5555 52.3094 20.0726C52.7434 20.5 53.0892 21.0085 53.3271 21.5692C53.5696 22.2028 53.6836 22.8785 53.6624 23.5566ZM50.9864 23.6345C50.9975 23.1408 50.9015 22.6507 50.7051 22.1977C50.4944 21.7517 50.2066 21.3464 49.855 21.0004C49.4389 20.6041 48.937 20.3091 48.3883 20.1384C47.7341 19.9109 47.0456 19.7975 46.353 19.8032H44.9282H44.2158L43.9644 17.9175C44.6552 17.9057 45.3423 17.8133 46.0117 17.6421C46.5773 17.4902 47.1121 17.241 47.5922 16.9058C48.0375 16.5918 48.4076 16.1828 48.6757 15.7085C48.9646 15.2108 49.1116 14.6435 49.1007 14.0682C49.1157 13.481 48.9529 12.9031 48.6338 12.41C48.3094 11.9342 47.8655 11.5523 47.3467 11.3025C46.8074 11.0602 46.2373 10.893 45.6526 10.8056C44.9416 10.6949 44.223 10.6408 43.5034 10.644H42.1445H41.3543C41.3184 12.1765 41.3005 13.7988 41.2945 15.5229C41.2902 16.7564 41.292 17.7417 41.2934 18.4876C41.294 18.7842 41.2945 19.043 41.2945 19.2644V24.6941V27.6094L42.1326 27.6513H43.1443C44.2646 27.6552 45.3841 27.5913 46.4966 27.4598C47.4108 27.3681 48.2989 27.1018 49.1127 26.6756C49.6678 26.3766 50.1344 25.9368 50.4656 25.4004C50.8009 24.8713 50.9851 24.2607 50.9984 23.6345H50.9864ZM75.5426 28.4835L73.5731 30.1058C73.3396 29.8604 72.5255 28.9504 71.1187 27.376C69.7119 25.8016 67.5269 23.3352 64.6354 19.9888V19.8451C65.1876 19.6764 65.7196 19.4475 66.2218 19.1627C66.8248 18.8539 67.386 18.4696 67.892 18.0193C68.2995 17.639 68.6414 17.194 68.9037 16.7023C69.2245 16.0457 69.3748 15.319 69.3407 14.5891C69.3594 13.8435 69.1345 13.1121 68.7002 12.5058C68.2606 11.9117 67.651 11.465 66.9522 11.2247C66.3358 10.991 65.6882 10.8498 65.0305 10.8057C64.3601 10.7578 63.7435 10.7338 63.1747 10.7338H62.3127H61.8697C61.8697 12.7293 61.8577 14.4853 61.8338 16.0019V19.2285V25.0832C61.8338 27.5237 61.8631 29.0615 61.8753 29.7025V29.7026L61.8757 29.7227H59.2836C59.2836 29.0921 59.2996 27.8749 59.3315 26.071C59.3634 24.2671 59.3634 22.0162 59.3315 19.3183V16.4089C59.3315 14.9961 59.3055 12.418 59.2537 8.67451L60.8221 8.64457C61.76 8.62062 62.628 8.60865 63.4262 8.60865C64.3147 8.60734 65.2024 8.66133 66.0841 8.7703C66.9482 8.87498 67.7929 9.10278 68.5924 9.44676C69.5822 9.8458 70.4377 10.5186 71.0588 11.3863C71.6708 12.2629 71.9893 13.3107 71.9688 14.3795C72.0143 15.7501 71.5223 17.0842 70.5979 18.0971C69.8396 18.9515 68.965 19.6951 67.9998 20.3061V20.3839C69.4365 22.0601 71.0109 23.7902 72.723 25.5741C74.4352 27.3581 75.375 28.3278 75.5426 28.4835ZM96.8602 8.72991V8.72837L94.2441 8.69246L94.244 8.74626V8.74636V8.74641C94.2434 8.99191 94.2413 9.83644 94.2741 11.2846C94.31 12.8708 94.31 14.8999 94.31 17.3839V17.3847V19.7254V22.2097C94.31 24.2511 93.8011 25.6998 92.7835 26.6456C91.7658 27.5915 90.2452 28.0584 88.2099 28.0584C86.5869 28.147 84.9909 27.6164 83.744 26.5738C82.6425 25.5881 82.0918 24.1334 82.0918 22.2097V19.7254V17.3847C82.0918 16.5051 82.0872 15.6845 82.0829 14.9233C82.0753 13.5552 82.0687 12.3791 82.0918 11.3983C82.1277 9.87177 82.1277 8.97981 82.1277 8.71641H79.5176L79.5174 9.4663V9.46695V9.46699V9.46703V9.46707V9.46711V9.46715C79.5168 11.1397 79.5162 12.5655 79.5475 13.7091C79.5835 15.0199 79.5835 16.1692 79.5835 17.1449V17.1452V20.1983V22.3953C79.5618 23.4916 79.7466 24.5821 80.1282 25.61C80.4828 26.5328 81.0439 27.3621 81.7685 28.0345C82.5513 28.7633 83.4767 29.3218 84.4863 29.6748C85.6799 30.0862 86.9355 30.2887 88.1979 30.2734C89.4607 30.2949 90.7174 30.0922 91.9094 29.6748C92.9121 29.3241 93.8313 28.7697 94.6093 28.0465C95.3332 27.3722 95.8959 26.5435 96.2556 25.622C96.6343 24.5933 96.819 23.5033 96.8003 22.4073V20.2103V17.1572V17.1568C96.8003 16.1811 96.8003 15.0379 96.8303 13.721C96.8602 12.4044 96.8602 10.7407 96.8602 8.72991ZM137.831 29.7466H140.423C140.421 29.5547 140.421 29.3155 140.421 29.029V29.0288V29.0286V29.0285V29.0283V29.0278C140.421 28.3758 140.42 27.4793 140.399 26.3404C140.369 24.7005 140.369 22.3366 140.369 19.2608V19.2584C140.369 18.8573 140.368 18.4197 140.366 17.9463C140.362 16.8723 140.357 15.6135 140.369 14.176C140.376 13.3698 140.386 12.5999 140.395 11.8669L140.395 11.8638L140.395 11.8613L140.395 11.8595L140.395 11.8573C140.41 10.7109 140.423 9.65503 140.423 8.69246H137.831C137.827 10.2968 137.837 11.8633 137.861 13.3918C137.885 14.9203 137.897 16.377 137.897 17.7618H135.347H127.253H125.2C125.2 17.0888 125.207 16.3988 125.214 15.6904C125.222 14.9432 125.23 14.1755 125.23 13.3858V8.69246H122.614C122.62 9.38925 122.629 10.0694 122.638 10.7324L122.638 10.7345L122.638 10.7364L122.638 10.7379L122.638 10.7392L122.638 10.7413C122.653 11.8977 122.668 13.0017 122.668 14.0503V18.2408C122.668 19.1141 122.669 19.9293 122.669 20.6863V20.6892V20.6918V20.6942V20.6964V20.6966V20.6967V20.6968V20.6969C122.672 23.2452 122.675 25.1345 122.638 26.3703C122.59 27.9746 122.59 29.0881 122.59 29.7167H125.182C125.18 29.5252 125.176 29.2904 125.171 29.0149C125.16 28.3862 125.146 27.5458 125.146 26.5259V19.9409H127.511H135.071H137.873C137.873 20.8353 137.878 21.6786 137.883 22.4696V22.4698V22.4701V22.4703V22.4705C137.892 23.9134 137.9 25.1821 137.873 26.2685C137.831 27.9507 137.831 29.118 137.831 29.7466ZM161.148 29.7166H159.059H154.228H150.576H147.768C147.792 29.114 147.81 27.799 147.822 25.7716C147.834 23.7442 147.834 21.6529 147.822 19.4978V14.7985C147.822 13.1721 147.797 11.5 147.772 9.78218L147.772 9.77974L147.771 9.76224L147.771 9.74042L147.771 9.71351C147.766 9.39269 147.761 9.07028 147.757 8.74627H150.546H154H158.885H160.933V10.9313H158.957H154.437H152.127H150.331V10.9322C150.331 12.1292 150.331 13.2962 150.301 14.4753C150.271 15.6546 150.265 16.768 150.265 17.8157H151.941H153.665H158.604H160.927V19.9827H158.328H153.821H152.025H150.271V24.7V27.6214H152.522H155.365H159.304H161.1L161.148 29.7166ZM167.23 29.7465H169.822C169.81 29.118 169.798 27.9327 169.816 26.1906C169.796 24.4506 169.786 21.9842 169.786 18.7914C169.751 17.5343 169.751 15.912 169.786 13.9245C169.822 11.937 169.84 10.195 169.84 8.69838H167.248L167.251 8.91095L167.251 8.91495V8.91529C167.28 10.9213 167.308 12.8605 167.308 14.7327V19.438C167.308 20.1205 167.309 20.7668 167.31 21.3772V21.38V21.3804C167.313 23.4667 167.315 25.1321 167.278 26.3822C167.23 27.998 167.23 29.1172 167.23 29.7459V29.7465ZM219.569 14.3735C219.585 12.2583 219.605 10.3766 219.629 8.72837L217.199 8.74034C217.195 10.5642 217.215 13.3938 217.259 17.2291C217.303 21.0643 217.324 23.7802 217.324 25.3765H217.295C214.617 22.088 211.767 18.5261 208.746 14.6908L203.927 8.57871L201.532 9.71015C201.568 11.7994 201.598 13.8048 201.598 15.6965V20.2462C201.598 23.1077 201.586 25.3466 201.568 26.945C201.557 27.9571 201.541 28.7052 201.53 29.1832C201.524 29.46 201.52 29.6462 201.52 29.7406H203.975C203.963 29.134 203.939 26.7754 203.903 22.6647C203.867 18.554 203.849 15.1019 203.849 12.3082H203.879C204.322 12.855 205.918 14.8505 208.668 18.2946C211.418 21.7388 214.377 25.598 217.546 29.8723L219.635 28.8486C219.635 28.8256 219.634 28.7687 219.632 28.678C219.624 28.322 219.605 27.445 219.605 26.047C219.581 24.291 219.569 21.9244 219.569 18.9472V14.3735Z" fill="white"/>
</g>
<defs>
<clipPath id="clip0_143_49">
<rect width="219" height="35" fill="white"/>
</clipPath>
</defs>
</svg>
